<?xml version="1.0" encoding="UTF-8" standalone="no"?>
<svg
   version="1.1"
   width="1920px"
   height="393px"
   style="shape-rendering:geometricPrecision; text-rendering:geometricPrecision; image-rendering:optimizeQuality; fill-rule:evenodd; clip-rule:evenodd"
   id="svg15"
   sodipodi:docname="HiGHS_banner.svg"
   inkscape:version="1.3.2 (091e20ef0f, 2023-11-25)"
   xmlns:inkscape="http://www.inkscape.org/namespaces/inkscape"
   xmlns:sodipodi="http://sodipodi.sourceforge.net/DTD/sodipodi-0.dtd"
   xmlns="http://www.w3.org/2000/svg"
   xmlns:svg="http://www.w3.org/2000/svg">
  <defs
     id="defs15" />
  <sodipodi:namedview
     id="namedview15"
     pagecolor="#505050"
     bordercolor="#eeeeee"
     borderopacity="1"
     inkscape:showpageshadow="0"
     inkscape:pageopacity="0"
     inkscape:pagecheckerboard="0"
     inkscape:deskcolor="#505050"
     inkscape:zoom="0.97395833"
     inkscape:cx="959.48663"
     inkscape:cy="196.10695"
     inkscape:window-width="2560"
     inkscape:window-height="1371"
     inkscape:window-x="2560"
     inkscape:window-y="32"
     inkscape:window-maximized="1"
     inkscape:current-layer="svg15" />
  <g
     id="g1">
    <path
       style="display:inline;opacity:1"
       fill="#d90200"
       d="m 223.5,-0.5 c 0.667,0 1.333,0 2,0 74.069,129.136 148.402,258.136 223,387 -74.33,1.333 -148.997,2 -224,2 -75.003,0 -149.6697,-0.667 -224,-2 74.6136,-128.901 148.947,-257.901 223,-387 z"
       id="path1" />
  </g>
  <g
     id="g2">
    <path
       style="display:inline;opacity:1"
       fill="#d90b04"
       d="m 1030.5,47.5 c 1,-0.0858 1.83,0.2476 2.5,1 15.93,28.1956 32.09,56.196 48.5,84 -33.33,1.167 -66.66,1.333 -100,0.5 16.589,-28.405 32.92,-56.9054 49,-85.5 z"
       id="path2" />
  </g>
  <g
     id="g3">
    <path
       style="display:inline;opacity:1;fill:#000000;fill-opacity:1"
       fill="#040404"
       d="m 1285.5,337.5 c 1.99,-32.65 2.66,-65.65 2,-99 20.83,-0.997 41.83,-1.331 63,-1 0.17,43.335 0,86.668 -0.5,130 -23.76,14.896 -49.6,23.23 -77.5,25 -15.33,0 -30.67,0 -46,0 -55.14,-7.3 -88.3,-38.3 -99.5,-93 -7.09,-34.347 -7.09,-68.68 0,-103 14.74,-59.737 52.57,-93.904 113.5,-102.5 28.36,-3.5188 55.7,0.1478 82,11 11.71,5.048 21.71,12.381 30,22 -13.54,15.035 -27.21,29.869 -41,44.5 -23.86,-23.119 -51.52,-28.952 -83,-17.5 -18.8,8.751 -30.64,23.251 -35.5,43.5 -1.97,7.221 -3.31,14.555 -4,22 -2.11,25.36 -0.11,50.36 6,75 10.23,31.054 31.73,46.387 64.5,46 8.78,-0.13 17.44,-1.13 26,-3 z"
       id="path3" />
  </g>
  <g
     id="g4">
    <path
       style="display:inline;opacity:1;fill:#000000;fill-opacity:1"
       fill="#040404"
       d="m 1919.5,293.5 c 0,8.333 0,16.667 0,25 -7.3,31.812 -26.3,53.645 -57,65.5 -11.17,4.06 -22.5,6.893 -34,8.5 -13,0 -26,0 -39,0 -21.82,-3.105 -42.48,-9.938 -62,-20.5 -6.74,-4.07 -12.91,-8.904 -18.5,-14.5 -0.67,-1 -0.67,-2 0,-3 11.03,-16.75 22.53,-33.084 34.5,-49 1,0 2,0 3,0 19.16,20.409 42.83,31.409 71,33 12.91,0.646 23.74,-3.687 32.5,-13 7.07,-12.231 5.57,-23.231 -4.5,-33 -3.98,-3.656 -8.31,-6.822 -13,-9.5 -20.65,-9.451 -41.31,-19.118 -62,-29 -19.83,-9.833 -34.67,-24.667 -44.5,-44.5 -13.59,-45.25 -0.09,-79.75 40.5,-103.5 24.03,-11.6252 49.37,-15.6252 76,-12 27.58,2.9518 50.92,14.285 70,34 -13.15,15.98 -26.48,31.813 -40,47.5 -17.34,-21.328 -39.68,-29.828 -67,-25.5 -18.89,7.693 -23.73,20.526 -14.5,38.5 3.53,3.869 7.37,7.369 11.5,10.5 21.36,11.112 43.02,21.445 65,31 18.3,8.961 32.8,22.128 43.5,39.5 3.76,7.796 6.6,15.796 8.5,24 z"
       id="path4" />
  </g>
  <g
     id="g5">
    <path
       style="display:inline;opacity:1;fill:#000000;fill-opacity:1"
       fill="#070707"
       d="m 694.5,96.5 c 20.909,-0.3267 41.742,0.0066 62.5,1 0.5,39.665 0.667,79.332 0.5,119 35,0 70,0 105,0 -0.167,-39.668 0,-79.335 0.5,-119 21.094,-1.1597 42.26,-1.3264 63.5,-0.5 1.165,96.763 1.332,193.597 0.5,290.5 -21.425,0.994 -42.925,1.327 -64.5,1 0,-39.667 0,-79.333 0,-119 -35,0 -70,0 -105,0 0,39.667 0,79.333 0,119 -21.667,0 -43.333,0 -65,0 -0.661,-97.545 0.006,-194.878 2,-292 z"
       id="path5" />
  </g>
  <g
     id="g6">
    <path
       style="opacity:1;fill:#000000;fill-opacity:1"
       fill="#020202"
       d="M 1652.5,97.5 C 1652.5,194.167 1652.5,290.833 1652.5,387.5C 1631.83,387.5 1611.17,387.5 1590.5,387.5C 1590.83,347.996 1590.5,308.663 1589.5,269.5C 1554.5,269.5 1519.5,269.5 1484.5,269.5C 1484.5,309.167 1484.5,348.833 1484.5,388.5C 1463.17,388.5 1441.83,388.5 1420.5,388.5C 1420.5,291.167 1420.5,193.833 1420.5,96.5C 1441.74,96.1732 1462.91,96.5065 1484,97.5C 1484.5,137.165 1484.67,176.832 1484.5,216.5C 1519.5,216.5 1554.5,216.5 1589.5,216.5C 1589.33,176.832 1589.5,137.165 1590,97.5C 1610.93,96.1689 1631.76,96.1689 1652.5,97.5 Z"
       id="path6" />
  </g>
  <g
     id="g9">
    <path
       style="display:inline;opacity:1;fill:#000000;fill-opacity:1"
       fill="#020202"
       d="m 451.5,98.5 c 56.157,95.637 111.823,191.637 167,288 -45.988,1.995 -92.321,2.662 -139,2 -33.492,-56.308 -66.492,-112.975 -99,-170 22.774,-39.893 45.774,-79.56 69,-119 0.667,-0.3333 1.333,-0.6667 2,-1 z"
       id="path9" />
  </g>
  <g
     id="g11">
    <path
       style="display:inline;opacity:1"
       fill="#000000"
       d="m 1062.5,388.5 c -20.67,0 -41.33,0 -62,0 0,-78 0,-156 0,-234 20.67,0 41.33,0 62,0 0,78 0,156 0,234 z"
       id="path11" />
  </g>
</svg>
